<svg width="30" height="30" viewBox="0 0 30 30" fill="none" xmlns="http://www.w3.org/2000/svg">
<path d="M15 0.833252C12.1981 0.833252 9.45912 1.66411 7.12942 3.22077C4.79973 4.77742 2.98395 6.98995 1.91171 9.57857C0.839466 12.1672 0.558919 15.0156 1.10554 17.7637C1.65217 20.5118 3.00141 23.036 4.98266 25.0173C6.9639 26.9985 9.48816 28.3478 12.2362 28.8944C14.9843 29.441 17.8327 29.1605 20.4214 28.0882C23.01 27.016 25.2225 25.2002 26.7792 22.8705C28.3358 20.5408 29.1667 17.8018 29.1667 14.9999C29.1667 13.1395 28.8002 11.2973 28.0883 9.57857C27.3764 7.85979 26.3328 6.29807 25.0173 4.98257C23.7019 3.66708 22.1401 2.62357 20.4214 1.91163C18.7026 1.19968 16.8604 0.833252 15 0.833252ZM15 3.66659C17.9109 3.66542 20.7088 4.79274 22.8058 6.81158C20.6412 8.0812 18.3474 9.1165 15.9633 9.89992C14.7769 7.85542 13.4166 5.91687 11.8975 4.10575C12.9061 3.81533 13.9504 3.66751 15 3.66659ZM9.1775 5.29575C10.6617 6.99363 11.9938 8.81872 13.1583 10.7499C10.3776 11.4404 7.52355 11.7924 4.65833 11.7983H4.14833C4.95187 9.07774 6.74641 6.75748 9.1775 5.29575ZM6.5 22.5224C4.65657 20.4523 3.64695 17.7718 3.66667 14.9999V14.5891H4.63C7.98378 14.5591 11.3186 14.0827 14.5467 13.1724C15 14.0366 15.425 14.9291 15.8358 15.8499C13.6279 16.6283 11.5717 17.7834 9.75834 19.2641L9.33333 19.6041C8.32342 20.5111 7.37676 21.4861 6.5 22.5224ZM15 26.3333C12.742 26.3383 10.5349 25.6618 8.6675 24.3924C9.35719 23.6013 10.0953 22.8538 10.8775 22.1541L11.3308 21.7716C13.007 20.3619 14.9277 19.2718 16.9975 18.5558C17.8494 20.8592 18.5127 23.2281 18.9808 25.6391C17.7056 26.1047 16.3576 26.3398 15 26.3333ZM21.5592 24.2224C21.0957 22.0784 20.4899 19.9676 19.7458 17.9041H20.2275C20.2833 17.8903 20.3417 17.8903 20.3975 17.9041H21.375C22.8658 17.9084 24.3455 18.1621 25.7525 18.6549C24.9795 20.9079 23.5112 22.8574 21.5592 24.2224ZM21.375 14.9999H20.4967C20.3132 14.9768 20.1276 14.9768 19.9442 14.9999C19.5591 15.0236 19.1759 15.0709 18.7967 15.1416H18.655C18.2442 14.1924 17.8192 13.2716 17.3517 12.3083C19.8884 11.4371 22.3247 10.2973 24.6192 8.90825C25.7574 10.7349 26.3519 12.8478 26.3333 14.9999V15.7224C24.7278 15.2269 23.0552 14.9832 21.375 14.9999Z" fill="white"/>
</svg>
