<svg width="30" height="30" viewBox="0 0 30 30" fill="none" xmlns="http://www.w3.org/2000/svg">
<path d="M22.565 5.73492C22.2288 5.73492 21.9001 5.83462 21.6205 6.02142C21.341 6.20822 21.1231 6.47372 20.9944 6.78436C20.8657 7.09499 20.8321 7.4368 20.8977 7.76657C20.9633 8.09634 21.1252 8.39925 21.3629 8.637C21.6007 8.87475 21.9036 9.03666 22.2334 9.10225C22.5631 9.16785 22.9049 9.13418 23.2156 9.00551C23.5262 8.87685 23.7917 8.65895 23.9785 8.37939C24.1653 8.09982 24.265 7.77115 24.265 7.43492C24.265 6.98405 24.0859 6.55165 23.7671 6.23284C23.4483 5.91403 23.0159 5.73492 22.565 5.73492ZM29.0817 9.16325C29.0541 7.98784 28.834 6.82491 28.43 5.72075C28.0698 4.77602 27.5092 3.92056 26.7867 3.21325C26.0852 2.48711 25.2277 1.93 24.2792 1.58409C23.1779 1.16781 22.0137 0.942633 20.8367 0.918252C19.335 0.833252 18.8533 0.833252 15 0.833252C11.1467 0.833252 10.665 0.833252 9.16334 0.918252C7.98631 0.942633 6.82208 1.16781 5.72084 1.58409C4.77405 1.9335 3.91733 2.49013 3.21334 3.21325C2.4872 3.91475 1.93009 4.77221 1.58418 5.72075C1.1679 6.82199 0.942724 7.98622 0.918343 9.16325C0.833343 10.6649 0.833344 11.1466 0.833344 14.9999C0.833344 18.8533 0.833343 19.3349 0.918343 20.8366C0.942724 22.0136 1.1679 23.1778 1.58418 24.2791C1.93009 25.2276 2.4872 26.0851 3.21334 26.7866C3.91733 27.5097 4.77405 28.0663 5.72084 28.4158C6.82208 28.832 7.98631 29.0572 9.16334 29.0816C10.665 29.1666 11.1467 29.1666 15 29.1666C18.8533 29.1666 19.335 29.1666 20.8367 29.0816C22.0137 29.0572 23.1779 28.832 24.2792 28.4158C25.2277 28.0698 26.0852 27.5127 26.7867 26.7866C27.5124 26.0819 28.0735 25.2257 28.43 24.2791C28.834 23.1749 29.0541 22.012 29.0817 20.8366C29.0817 19.3349 29.1667 18.8533 29.1667 14.9999C29.1667 11.1466 29.1667 10.6649 29.0817 9.16325ZM26.5317 20.6666C26.5214 21.5658 26.3585 22.4568 26.05 23.3016C25.8238 23.9181 25.4605 24.4752 24.9875 24.9308C24.528 25.399 23.9721 25.7615 23.3583 25.9933C22.5136 26.3017 21.6226 26.4646 20.7233 26.4749C19.3067 26.5458 18.7825 26.5599 15.0567 26.5599C11.3308 26.5599 10.8067 26.5599 9.39001 26.4749C8.45627 26.4924 7.52652 26.3486 6.64168 26.0499C6.05487 25.8064 5.52443 25.4447 5.08334 24.9874C4.61314 24.5323 4.25437 23.9748 4.03501 23.3583C3.68914 22.5014 3.49731 21.5902 3.46834 20.6666C3.46834 19.2499 3.38334 18.7258 3.38334 14.9999C3.38334 11.2741 3.38334 10.7499 3.46834 9.33325C3.47469 8.41391 3.64252 7.50284 3.96418 6.64159C4.21358 6.04363 4.59639 5.5106 5.08334 5.08325C5.51375 4.59616 6.04567 4.2093 6.64168 3.94992C7.50521 3.63831 8.41534 3.47545 9.33334 3.46825C10.75 3.46825 11.2742 3.38325 15 3.38325C18.7258 3.38325 19.25 3.38325 20.6667 3.46825C21.5659 3.47857 22.4569 3.64143 23.3017 3.94992C23.9455 4.18884 24.5233 4.57729 24.9875 5.08325C25.4518 5.51842 25.8145 6.05046 26.05 6.64159C26.3649 7.50424 26.5278 8.41494 26.5317 9.33325C26.6025 10.7499 26.6167 11.2741 26.6167 14.9999C26.6167 18.7258 26.6025 19.2499 26.5317 20.6666ZM15 7.73242C13.5632 7.73522 12.1595 8.16383 10.9663 8.96409C9.773 9.76436 8.84371 10.9004 8.29583 12.2286C7.74794 13.5568 7.60604 15.0176 7.88805 16.4264C8.17007 17.8352 8.86335 19.1288 9.88029 20.1438C10.8972 21.1588 12.1922 21.8495 13.6016 22.1288C15.0109 22.4081 16.4715 22.2633 17.7986 21.7128C19.1257 21.1624 20.2599 20.2309 21.0579 19.0361C21.8558 17.8412 22.2817 16.4367 22.2817 14.9999C22.2836 14.0438 22.0964 13.0968 21.7309 12.2133C21.3655 11.3298 20.829 10.5272 20.1522 9.85182C19.4755 9.17642 18.6719 8.64146 17.7877 8.27774C16.9035 7.91401 15.9561 7.72868 15 7.73242ZM15 19.7174C14.067 19.7174 13.1549 19.4407 12.3791 18.9224C11.6033 18.404 10.9987 17.6672 10.6416 16.8052C10.2846 15.9432 10.1911 14.9947 10.3732 14.0796C10.5552 13.1645 11.0045 12.3239 11.6642 11.6641C12.324 11.0044 13.1646 10.5551 14.0797 10.3731C14.9948 10.191 15.9433 10.2845 16.8053 10.6415C17.6673 10.9986 18.4041 11.6032 18.9225 12.379C19.4408 13.1548 19.7175 14.0669 19.7175 14.9999C19.7175 15.6194 19.5955 16.2329 19.3584 16.8052C19.1213 17.3776 18.7738 17.8976 18.3358 18.3357C17.8977 18.7738 17.3777 19.1212 16.8053 19.3583C16.233 19.5954 15.6195 19.7174 15 19.7174Z" fill="white"/>
</svg>
