<svg width="31" height="31" viewBox="0 0 31 31" fill="none" xmlns="http://www.w3.org/2000/svg">
<path d="M22.5457 10.5726C21.2776 10.5723 20.0291 10.8863 18.912 11.4863C18.8099 11.2176 18.6286 10.9863 18.392 10.8231C18.1554 10.6599 17.8748 10.5725 17.5874 10.5726H11.9207C11.545 10.5726 11.1846 10.7218 10.919 10.9875C10.6533 11.2532 10.504 11.6135 10.504 11.9892V28.9892C10.504 29.365 10.6533 29.7253 10.919 29.991C11.1846 30.2566 11.545 30.4059 11.9207 30.4059H17.5874C17.9631 30.4059 18.3234 30.2566 18.5891 29.991C18.8548 29.7253 19.004 29.365 19.004 28.9892V21.1976C19.004 20.8218 19.1533 20.4615 19.419 20.1958C19.6846 19.9302 20.045 19.7809 20.4207 19.7809C20.7964 19.7809 21.1568 19.9302 21.4224 20.1958C21.6881 20.4615 21.8374 20.8218 21.8374 21.1976V28.9892C21.8374 29.365 21.9866 29.7253 22.2523 29.991C22.518 30.2566 22.8783 30.4059 23.254 30.4059H28.9207C29.2964 30.4059 29.6568 30.2566 29.9224 29.991C30.1881 29.7253 30.3374 29.365 30.3374 28.9892V18.3642C30.3347 16.2986 29.513 14.3182 28.0523 12.8576C26.5917 11.3969 24.6114 10.5752 22.5457 10.5726ZM27.504 27.5726H24.6707V21.1976C24.6707 20.0704 24.2229 18.9894 23.4259 18.1924C22.6289 17.3953 21.5479 16.9476 20.4207 16.9476C19.2935 16.9476 18.2125 17.3953 17.4155 18.1924C16.6185 18.9894 16.1707 20.0704 16.1707 21.1976V27.5726H13.3374V13.4059H16.1707V14.4018C16.1706 14.6954 16.2617 14.9819 16.4314 15.2215C16.6012 15.4611 16.8412 15.642 17.1183 15.7392C17.3953 15.8365 17.6958 15.8452 17.978 15.7642C18.2603 15.6832 18.5104 15.5166 18.6938 15.2872C19.3298 14.4799 20.202 13.8913 21.1887 13.6036C22.1753 13.3159 23.2272 13.3435 24.1974 13.6825C25.1677 14.0215 26.0078 14.655 26.6006 15.4946C27.1934 16.3342 27.5093 17.3379 27.504 18.3656V27.5726ZM7.6707 10.5726H2.00404C1.62831 10.5726 1.26798 10.7218 1.0023 10.9875C0.736625 11.2532 0.58737 11.6135 0.58737 11.9892V28.9892C0.58737 29.365 0.736625 29.7253 1.0023 29.991C1.26798 30.2566 1.62831 30.4059 2.00404 30.4059H7.6707C8.04643 30.4059 8.40676 30.2566 8.67244 29.991C8.93811 29.7253 9.08737 29.365 9.08737 28.9892V11.9892C9.08737 11.6135 8.93811 11.2532 8.67244 10.9875C8.40676 10.7218 8.04643 10.5726 7.6707 10.5726ZM6.25404 27.5726H3.4207V13.4059H6.25404V27.5726ZM4.85862 0.00847772C4.23825 -0.0293199 3.61668 0.0595418 3.03175 0.269652C2.44682 0.479762 1.91077 0.806725 1.45625 1.23063C1.00173 1.65454 0.638237 2.16652 0.387912 2.7354C0.137587 3.30428 0.0056648 3.91816 0.000178462 4.53965C-0.00530788 5.16115 0.115756 5.77726 0.355999 6.35047C0.596242 6.92368 0.950638 7.442 1.39761 7.87387C1.84458 8.30573 2.37476 8.64211 2.95589 8.86251C3.53702 9.08291 4.15693 9.18273 4.77787 9.15589H4.81754C5.43826 9.19136 6.0597 9.10007 6.644 8.88759C7.2283 8.67512 7.76322 8.3459 8.21618 7.92001C8.66913 7.49411 9.03063 6.98046 9.27865 6.41034C9.52667 5.84021 9.65601 5.22556 9.65881 4.60384C9.6616 3.98211 9.53778 3.36632 9.29489 2.794C9.052 2.22167 8.69513 1.70479 8.24602 1.27484C7.79691 0.844896 7.26497 0.51089 6.6826 0.293175C6.10023 0.0754593 5.47963 -0.021407 4.85862 0.00847772ZM4.81754 6.32256H4.77787C4.53285 6.35248 4.28426 6.32965 4.04879 6.2556C3.81331 6.18156 3.59639 6.05801 3.41258 5.89326C3.22878 5.7285 3.08233 5.52634 2.98306 5.30034C2.88379 5.07434 2.83401 4.82972 2.83704 4.58289C2.83704 3.52464 3.63037 2.84181 4.85862 2.84181C5.10599 2.80926 5.35745 2.83003 5.59613 2.90273C5.8348 2.97543 6.05514 3.09838 6.24235 3.26331C6.42956 3.42825 6.5793 3.63134 6.6815 3.85895C6.7837 4.08655 6.83599 4.3334 6.83487 4.58289C6.83487 5.63973 6.04154 6.32256 4.81612 6.32256H4.81754Z" fill="white"/>
</svg>
