<svg width="32" height="32" viewBox="0 0 32 32" fill="none" xmlns="http://www.w3.org/2000/svg">
<path d="M20.4484 15.7352C19.8807 15.3707 19.2646 15.0879 18.6181 14.8951C18.2214 14.7747 17.7822 14.6571 17.3289 14.5452C16.9322 14.4347 16.4619 14.3213 15.8811 14.1938C15.1879 14.0485 14.5076 13.8476 13.8467 13.5932C13.5061 13.4608 13.2055 13.2427 12.9741 12.9599C12.8047 12.7285 12.7242 12.4439 12.7474 12.1581C12.7469 11.8516 12.8491 11.5538 13.0378 11.3123C13.3019 11.003 13.6445 10.7706 14.0295 10.6394C14.6771 10.4169 15.3595 10.3132 16.044 10.3334C16.5736 10.3246 17.1016 10.3943 17.6108 10.5402C17.9485 10.6353 18.2666 10.7897 18.5501 10.9964C18.7334 11.1272 18.8897 11.2922 19.0105 11.4823C19.0979 11.6474 19.2172 11.7936 19.3614 11.9124C19.5056 12.0312 19.6718 12.1203 19.8506 12.1746C20.0294 12.2289 20.2171 12.2473 20.403 12.2287C20.5889 12.2102 20.7693 12.155 20.9338 12.0665C21.0983 11.9779 21.2437 11.8577 21.3615 11.7127C21.4794 11.5678 21.5674 11.4009 21.6205 11.2218C21.6736 11.0427 21.6908 10.8548 21.671 10.6691C21.6512 10.4833 21.5949 10.3032 21.5052 10.1393C21.2065 9.61094 20.803 9.14911 20.3195 8.78216C19.7608 8.35301 19.1272 8.03162 18.4509 7.83441C17.6702 7.60377 16.8594 7.49108 16.0454 7.50008C15.0107 7.47781 13.9806 7.64588 13.0066 7.99591C12.1258 8.31657 11.352 8.8769 10.7726 9.61374C10.2176 10.3464 9.91709 11.2403 9.9169 12.1595C9.89392 13.0746 10.1838 13.9701 10.7386 14.6982C11.2742 15.3727 11.9763 15.8961 12.7757 16.2168C13.3798 16.4493 13.9983 16.6423 14.6273 16.7948C14.6386 16.7991 14.6471 16.809 14.6585 16.8118C14.9305 16.894 15.364 17.0031 15.9901 17.1377C16.2352 17.1915 16.4647 17.2496 16.6942 17.3077C16.7169 17.3133 16.7495 17.3204 16.7707 17.3275L16.7962 17.3303C17.1476 17.421 17.4861 17.5131 17.7964 17.608C18.1776 17.7195 18.5413 17.8836 18.8773 18.0953C19.0868 18.2269 19.2629 18.4054 19.3916 18.6167C19.5161 18.8744 19.5736 19.1595 19.5587 19.4454C19.5783 19.8155 19.4714 20.1812 19.2556 20.4824C18.964 20.8618 18.5697 21.1494 18.1194 21.3112C17.4482 21.5702 16.7318 21.6916 16.0128 21.6682C15.1813 21.7001 14.3542 21.533 13.6002 21.1808C13.252 20.9954 12.9529 20.7298 12.7276 20.4059C12.5694 20.1987 12.4705 19.9524 12.4414 19.6933C12.4414 19.3176 12.2921 18.9573 12.0265 18.6916C11.7608 18.4259 11.4005 18.2767 11.0247 18.2767C10.649 18.2767 10.2887 18.4259 10.023 18.6916C9.75732 18.9573 9.60806 19.3176 9.60806 19.6933C9.63142 20.5293 9.90588 21.3389 10.3957 22.0167C10.8853 22.7217 11.5374 23.2984 12.2969 23.6982C13.4525 24.2621 14.7275 24.5377 16.0128 24.5015C17.105 24.5279 18.1913 24.3327 19.206 23.9277C20.1492 23.5658 20.9682 22.9397 21.5647 22.1243C22.1318 21.33 22.4225 20.3714 22.3921 19.3958C22.4052 18.6396 22.2222 17.8928 21.8608 17.2283C21.5118 16.6285 21.0283 16.1178 20.4484 15.7366V15.7352ZM30.6782 18.3957C31.0601 16.0675 30.8823 13.6818 30.1594 11.436C29.4366 9.19016 28.1894 7.14869 26.5211 5.48041C24.8529 3.81214 22.8114 2.565 20.5656 1.84214C18.3197 1.11928 15.9341 0.941466 13.6059 1.32341C11.8869 0.499224 9.95452 0.228941 8.07539 0.549872C6.19626 0.870804 4.46308 1.76712 3.11509 3.11511C1.76711 4.46309 0.870788 6.19627 0.549857 8.0754C0.228925 9.95453 0.499208 11.8869 1.3234 13.6059C0.941767 15.9338 1.11976 18.3192 1.84266 20.5647C2.56556 22.8102 3.81261 24.8514 5.48068 26.5195C7.14875 28.1875 9.18993 29.4346 11.4354 30.1575C13.681 30.8804 16.0663 31.0584 18.3942 30.6767C20.1132 31.5009 22.0456 31.7712 23.9247 31.4503C25.8039 31.1294 27.5371 30.233 28.885 28.885C30.233 27.5371 31.1293 25.8039 31.4503 23.9248C31.7712 22.0456 31.5009 20.1132 30.6767 18.3942L30.6782 18.3957ZM22.3751 28.7501C21.3001 28.7496 20.2427 28.4777 19.3009 27.9596C19.0087 27.7986 18.6692 27.7454 18.3418 27.8094C16.5959 28.1576 14.7944 28.114 13.0674 27.6817C11.3403 27.2494 9.73074 26.4391 8.35477 25.3094C6.97879 24.1797 5.87071 22.7586 5.11045 21.1488C4.35019 19.5389 3.95672 17.7804 3.9584 16.0001C3.95986 15.2133 4.03766 14.4286 4.19073 13.6569C4.25482 13.3295 4.20166 12.99 4.04056 12.6978C3.37538 11.488 3.12093 10.0949 3.31549 8.72803C3.51005 7.36116 4.14309 6.0944 5.11944 5.11821C6.09578 4.14203 7.36265 3.50919 8.72955 3.31486C10.0965 3.12052 11.4895 3.37519 12.6992 4.04058C12.9917 4.20236 13.3319 4.25555 13.6597 4.19075C15.4056 3.84276 17.2069 3.88656 18.9338 4.319C20.6606 4.75143 22.27 5.56172 23.6458 6.69142C25.0216 7.82113 26.1296 9.24208 26.8897 10.8518C27.6499 12.4615 28.0434 14.2199 28.0417 16.0001C28.0403 16.7868 27.9625 17.5715 27.8094 18.3432C27.7453 18.6707 27.7985 19.0102 27.9596 19.3023C28.494 20.2729 28.7661 21.366 28.7492 22.4738C28.7323 23.5816 28.4269 24.6659 27.8631 25.6197C27.2993 26.5735 26.4967 27.3638 25.5343 27.9128C24.5719 28.4617 23.483 28.7503 22.3751 28.7501Z" fill="white"/>
</svg>
