<svg width="32" height="28" viewBox="0 0 32 28" fill="none" xmlns="http://www.w3.org/2000/svg">
<path d="M31.5706 2.59573C31.5706 2.34568 31.5044 2.1001 31.3787 1.88393C31.253 1.66776 31.0723 1.48871 30.8551 1.36496C30.6378 1.24121 30.3916 1.17718 30.1416 1.17936C29.8915 1.18154 29.6465 1.24987 29.4315 1.37739C28.6019 1.87154 27.7087 2.24999 26.7766 2.50223C25.4463 1.36078 23.7497 0.736224 21.9968 0.742726C20.074 0.74503 18.2273 1.49445 16.8467 2.83276C15.4661 4.17107 14.6596 5.99352 14.5975 7.91531C10.8063 7.31085 7.37009 5.33206 4.94437 2.35631C4.79821 2.17919 4.61164 2.03976 4.40036 1.94978C4.18908 1.85979 3.95927 1.82188 3.73029 1.83923C3.50135 1.85817 3.28047 1.93257 3.08672 2.05597C2.89296 2.17938 2.73216 2.3481 2.6182 2.54756C2.03386 3.56741 1.69828 4.71071 1.63871 5.8846C1.57914 7.05848 1.79727 8.22987 2.27537 9.30364L2.27254 9.30506C2.05718 9.43739 1.87945 9.62285 1.75641 9.84363C1.63336 10.0644 1.56913 10.3131 1.56987 10.5659C1.5676 10.7738 1.58038 10.9817 1.60812 11.1878C1.75279 12.97 2.5426 14.6383 3.82945 15.8798C3.74213 16.0463 3.68888 16.2285 3.67283 16.4158C3.65677 16.6031 3.67823 16.7917 3.73595 16.9706C4.29692 18.719 5.49015 20.1952 7.08212 21.1101C5.46453 21.7355 3.71796 21.9535 1.99629 21.7448C1.67778 21.7052 1.35526 21.7749 1.08156 21.9425C0.80785 22.1102 0.599179 22.3658 0.489718 22.6675C0.380256 22.9692 0.376494 23.2992 0.479048 23.6033C0.581601 23.9074 0.78439 24.1677 1.0542 24.3416C4.01533 26.2484 7.46303 27.2621 10.985 27.2613C14.979 27.3063 18.8758 26.0301 22.0694 23.6312C25.263 21.2324 27.5743 17.8454 28.6438 13.9971C29.1438 12.3208 29.3991 10.5811 29.4017 8.83189L29.4003 8.54856C30.14 7.7507 30.713 6.81318 31.0857 5.79098C31.4584 4.76878 31.6232 3.68247 31.5706 2.59573ZM26.8871 7.14606C26.6529 7.42262 26.5342 7.77877 26.5556 8.14056C26.5698 8.37431 26.5684 8.60948 26.5684 8.83189C26.5654 10.3097 26.3487 11.7794 25.9252 13.1952C25.0521 16.47 23.1052 19.357 20.3964 21.3939C17.6875 23.4308 14.3735 24.4997 10.985 24.4294C9.76831 24.4296 8.55579 24.2865 7.37254 24.003C8.88173 23.5163 10.2928 22.7661 11.5404 21.7873C11.7704 21.6064 11.9388 21.3588 12.0224 21.0783C12.106 20.7979 12.1007 20.4984 12.0072 20.2211C11.9138 19.9438 11.7367 19.7023 11.5004 19.5297C11.2641 19.357 10.9801 19.2618 10.6875 19.2571C9.5099 19.2387 8.3854 18.7638 7.55104 17.9326C7.76259 17.8929 7.97273 17.8433 8.18145 17.7838C8.48749 17.6968 8.75533 17.5093 8.94183 17.2516C9.12833 16.9938 9.22263 16.6807 9.20954 16.3629C9.19646 16.045 9.07674 15.7407 8.86968 15.4992C8.66262 15.2576 8.38027 15.0928 8.06812 15.0312C7.38457 14.8962 6.74136 14.6053 6.18853 14.1813C5.63569 13.7572 5.18812 13.2113 4.88062 12.5861C5.13669 12.6211 5.39439 12.6428 5.6527 12.6512C5.95967 12.6563 6.26027 12.5634 6.51091 12.3861C6.76156 12.2089 6.94922 11.9563 7.0467 11.6652C7.14028 11.3716 7.13558 11.0556 7.03332 10.7649C6.93106 10.4742 6.73681 10.2248 6.48004 10.0545C5.85661 9.63948 5.34586 9.07633 4.99355 8.41546C4.64123 7.75458 4.45835 7.01664 4.46129 6.26773C4.46129 6.17423 4.46412 6.07931 4.46979 5.98723C7.64519 8.94895 11.7641 10.6948 16.1006 10.9172C16.3196 10.9255 16.5376 10.8839 16.7381 10.7956C16.9386 10.7072 17.1164 10.5744 17.258 10.4072C17.3983 10.239 17.4977 10.0405 17.5483 9.82741C17.599 9.61429 17.5995 9.39233 17.5499 9.17898C17.4688 8.84069 17.4274 8.4941 17.4266 8.14623C17.4281 6.9346 17.9101 5.77303 18.7668 4.91629C19.6236 4.05954 20.7852 3.57756 21.9968 3.57606C22.6203 3.57422 23.2375 3.70168 23.8093 3.95039C24.3811 4.1991 24.8951 4.56366 25.3189 5.02106C25.4823 5.1969 25.6879 5.328 25.9163 5.4019C26.1447 5.47579 26.3882 5.49002 26.6236 5.44323C27.2056 5.3301 27.7792 5.1777 28.3406 4.98706C27.9579 5.77023 27.4687 6.49676 26.8871 7.14606Z" fill="white"/>
</svg>
